<!DOCTYPE svg PUBLIC "-//W3C//DTD SVG 1.1//EN" "http://www.w3.org/Graphics/SVG/1.1/DTD/svg11.dtd">
<!-- Uploaded to: SVG Repo, www.svgrepo.com, Transformed by: SVG Repo Mixer Tools -->
<svg width="800px" height="800px" viewBox="0 0 64 64" data-name="Layer 1" id="Layer_1" xmlns="http://www.w3.org/2000/svg" fill="#000000">
<g id="SVGRepo_bgCarrier" stroke-width="0"/>
<g id="SVGRepo_tracerCarrier" stroke-linecap="round" stroke-linejoin="round"/>
<g id="SVGRepo_iconCarrier">
<defs>
<style>.cls-1{fill:#f1f1f1;}</style>
</defs>
<title/>
<path class="cls-1" d="M32,41.5a6,6,0,0,1-1.78-.27l-22.5-7a6,6,0,1,1,3.56-11.46L32,29.22l7.52-2.34A2,2,0,1,1,40.7,30.7l-8.11,2.52a2,2,0,0,1-1.18,0L10.09,26.59a2,2,0,0,0-1.52.14,2,2,0,0,0-1,1.18,2,2,0,0,0,1.32,2.5l22.5,7a2,2,0,0,0,1.18,0l22.5-7a2,2,0,0,0-1.18-3.82L49.44,28a2,2,0,1,1-1.19-3.82l4.47-1.39a6,6,0,1,1,3.56,11.46l-22.5,7A6,6,0,0,1,32,41.5Z"/>
</g>
</svg>